<svg width="66" height="12" viewBox="0 0 66 12" fill="none" xmlns="http://www.w3.org/2000/svg">
<g clip-path="url(#clip0_9_1773)">
<path d="M3.65138 11.5L4.35938 7.3395L1.35938 4.3925L5.50537 3.7855L7.35938 0L9.21338 3.7855L13.3594 4.3925L10.3594 7.3395L11.0674 11.5L7.35938 9.5355L3.65138 11.5Z" fill="black"/>
</g>
<g clip-path="url(#clip1_9_1773)">
<path d="M16.6514 11.5L17.3594 7.3395L14.3594 4.3925L18.5054 3.7855L20.3594 0L22.2134 3.7855L26.3594 4.3925L23.3594 7.3395L24.0674 11.5L20.3594 9.5355L16.6514 11.5Z" fill="black"/>
</g>
<g clip-path="url(#clip2_9_1773)">
<path d="M29.6514 11.5L30.3594 7.3395L27.3594 4.3925L31.5054 3.7855L33.3594 0L35.2134 3.7855L39.3594 4.3925L36.3594 7.3395L37.0674 11.5L33.3594 9.5355L29.6514 11.5Z" fill="black"/>
</g>
<g clip-path="url(#clip3_9_1773)">
<path d="M42.6514 11.5L43.3594 7.3395L40.3594 4.3925L44.5054 3.7855L46.3594 0L48.2134 3.7855L52.3594 4.3925L49.3594 7.3395L50.0674 11.5L46.3594 9.5355L42.6514 11.5Z" fill="black"/>
</g>
<g clip-path="url(#clip4_9_1773)">
<path d="M59.3594 8.992L62.4334 10.6205L61.8464 7.1715L64.3334 4.7285L60.8964 4.2255L59.3594 1.087V8.992ZM55.6514 11.5L56.3594 7.3395L53.3594 4.3925L57.5054 3.7855L59.3594 0L61.2134 3.7855L65.3594 4.3925L62.3594 7.3395L63.0674 11.5L59.3594 9.5355L55.6514 11.5Z" fill="black"/>
</g>
<defs>
<clipPath id="clip0_9_1773">
<rect width="12" height="12" fill="white" transform="translate(1.35938)"/>
</clipPath>
<clipPath id="clip1_9_1773">
<rect width="12" height="12" fill="white" transform="translate(14.3594)"/>
</clipPath>
<clipPath id="clip2_9_1773">
<rect width="12" height="12" fill="white" transform="translate(27.3594)"/>
</clipPath>
<clipPath id="clip3_9_1773">
<rect width="12" height="12" fill="white" transform="translate(40.3594)"/>
</clipPath>
<clipPath id="clip4_9_1773">
<rect width="12" height="12" fill="white" transform="translate(53.3594)"/>
</clipPath>
</defs>
</svg>
