<svg width="356" height="226" viewBox="0 0 356 226" fill="none" xmlns="http://www.w3.org/2000/svg">
<g clip-path="url(#clip0_2_6712)">
<path d="M284.727 0.026272L98.0006 -29.618L63.0587 -4.29357L45.4706 106.806L71.2311 142.198L257.115 171.709L292.049 146.389L309.772 34.4355L284.726 0.024102L284.727 0.026272ZM168.483 12.9137C171.398 9.05562 174.769 6.15209 178.503 4.28223C182.711 2.1749 187.271 1.43734 192.059 2.08975C202.394 3.49702 209.69 8.92172 213.153 17.7732C215.688 24.2498 216.073 32.5881 214.24 41.2521C212.639 48.8181 209.454 56.022 205.723 60.5227C201.788 65.2693 198.33 65.7743 196.124 65.3628C191.391 64.4794 189.052 60.35 187.923 57.0418C187.061 54.5104 186.503 51.3735 186.258 47.6824C184.724 51.1331 183.116 53.9649 181.465 56.1268C178.366 60.1848 174.981 62.0637 171.403 61.7136C170.76 61.6514 170.135 61.537 169.53 61.375C165.944 60.4139 163.051 57.7417 161.267 53.6859C159.042 48.6342 158.521 41.3627 159.833 33.7359C161.181 25.9095 164.252 18.5138 168.483 12.9137V12.9137ZM67.3315 67.6424C64.8353 62.8587 64.336 57.1475 65.9247 51.5614C67.6645 45.4384 71.7368 40.0357 77.6982 35.9383C83.1579 32.1849 88.8693 30.7478 92.9614 32.0844C95.7477 32.9959 97.7319 35.0911 98.8579 38.3125C99.4543 40.0211 98.905 41.6188 97.2218 43.0612C95.903 44.1924 93.9789 45.1835 91.9438 46.2328C89.0776 47.71 85.8305 49.3822 83.9186 51.6779C81.8155 54.2009 81.6245 57.0933 83.3177 60.782C84.3103 62.945 85.7456 64.3743 87.586 65.0324C89.482 65.7091 91.339 65.3727 92.4459 64.8335C95.332 63.4257 96.2642 62.4896 96.5523 62.1068L94.9838 59.6667C93.9088 60.3061 92.068 61.1508 90.2531 60.802C88.9285 60.5497 87.8683 59.7359 87.1024 58.3925C86.5477 57.419 86.4225 56.3921 86.7331 55.3426C87.593 52.4351 91.8021 49.9284 95.804 47.8591C97.1726 47.1518 98.7268 47.0477 100.183 47.5643C101.597 48.0659 102.756 49.1318 103.376 50.4946L108.973 59.1499C108.986 59.1698 109 59.192 109.011 59.2132C109.081 59.3403 110.708 62.3806 109.422 66.3635C108.169 70.2434 104.667 73.5811 99.0122 76.2797C94.101 78.624 87.7349 79.3101 81.9791 78.116C81.4868 78.0135 81.0033 77.8986 80.5269 77.7709C74.5806 76.1776 69.93 72.6203 67.3315 67.6424V67.6424ZM96.7455 120.431L82.648 118.193C82.5544 118.179 82.4627 118.158 82.3736 118.134C81.0747 117.786 80.2216 116.508 80.4361 115.152C80.6646 113.703 82.0275 112.715 83.479 112.947L97.5765 115.184C99.0301 115.414 100.019 116.776 99.7888 118.224C99.5603 119.673 98.1974 120.661 96.746 120.429L96.7455 120.431ZM119.06 111.511L64.1838 102.798C64.0902 102.784 63.9985 102.763 63.9093 102.74C62.6104 102.391 61.7574 101.113 61.9719 99.757C62.2003 98.308 63.5633 97.3205 65.0147 97.5518L119.891 106.264C121.342 106.495 122.333 107.855 122.103 109.304C121.875 110.753 120.512 111.74 119.06 111.509L119.06 111.511ZM123.069 55.6597C121.219 55.1638 119.395 54.4571 117.629 53.5293C104.782 46.7805 99.8199 30.8631 106.567 18.0466C113.315 5.23006 129.256 0.293082 142.103 7.0418C148.325 10.3111 152.904 15.803 154.993 22.5047C157.081 29.2063 156.433 36.3163 153.164 42.5245C147.344 53.5789 134.683 58.7715 123.069 55.6597ZM203.183 122.994C203.837 123.842 203.946 125.005 203.459 125.96C202.972 126.915 201.966 127.51 200.894 127.479L195.801 127.335L197.51 132.128C197.87 133.136 197.614 134.277 196.855 135.034C196.095 135.791 194.956 136.046 193.941 135.686L189.144 133.979L189.286 139.063C189.316 140.132 188.72 141.137 187.765 141.623C186.81 142.108 185.643 142 184.794 141.346L180.754 138.242L179.317 143.119C179.015 144.145 178.136 144.916 177.077 145.083C176.019 145.25 174.943 144.788 174.337 143.905L171.454 139.707L168.576 143.901C167.971 144.783 166.895 145.245 165.837 145.077C165.741 145.062 165.646 145.04 165.554 145.016C164.623 144.766 163.871 144.044 163.594 143.11L162.153 138.228L158.115 141.327C157.269 141.978 156.103 142.086 155.146 141.6C154.19 141.115 153.591 140.109 153.619 139.039L153.758 133.954L148.959 135.655C147.948 136.013 146.805 135.754 146.047 134.998C145.289 134.241 145.031 133.102 145.389 132.092L147.096 127.3L142.003 127.437C140.934 127.465 139.925 126.869 139.437 125.915C138.949 124.961 139.057 123.797 139.711 122.948L142.816 118.919L137.929 117.479C136.9 117.176 136.126 116.296 135.959 115.24C135.791 114.183 136.255 113.109 137.14 112.505L141.34 109.634L137.136 106.757C136.251 106.152 135.788 105.076 135.955 104.02C136.123 102.963 136.896 102.085 137.926 101.784L142.81 100.351L139.702 96.3174C139.047 95.4694 138.938 94.3057 139.426 93.3512C139.913 92.3966 140.919 91.8012 141.992 91.8322L147.084 91.9757L145.374 87.1829C145.014 86.1772 145.27 85.0361 146.028 84.2787C146.785 83.5213 147.928 83.2649 148.938 83.6234L153.74 85.3318L153.598 80.2479C153.569 79.1787 154.166 78.1728 155.12 77.6881C156.075 77.2017 157.242 77.3108 158.091 77.9655L162.13 81.0712L163.567 76.1941C163.869 75.1681 164.75 74.396 165.808 74.2305C166.868 74.0655 167.944 74.5278 168.55 75.4123L171.43 79.6077L174.308 75.4136C174.913 74.5311 175.988 74.0696 177.047 74.2378C178.104 74.4055 178.986 75.1772 179.29 76.2042L180.732 81.0848L184.769 77.9857C185.618 77.3334 186.785 77.2265 187.738 77.7129C188.693 78.1997 189.291 79.2031 189.264 80.2734L189.124 85.3589L193.924 83.6574C194.936 83.2999 196.077 83.5581 196.835 84.3147C197.593 85.0712 197.85 86.2104 197.492 87.2179L195.785 92.01L200.878 91.8735C201.951 91.8457 202.957 92.4434 203.444 93.3967C203.93 94.35 203.822 95.5143 203.171 96.3607L200.064 100.391L204.951 101.83C205.979 102.133 206.752 103.013 206.921 104.068C207.089 105.125 206.627 106.198 205.744 106.803L201.541 109.674L205.746 112.551C206.631 113.157 207.094 114.23 206.927 115.287C206.759 116.344 205.988 117.222 204.959 117.524L200.073 118.958L203.182 122.992L203.183 122.994ZM225.701 71.5413C220.583 69.1892 217.199 65.0091 215.92 59.4553C215.089 55.8494 214.826 49.8129 218.294 41.5302C220.724 35.7275 224.493 30.2199 228.635 26.4174C233.525 21.9287 238.512 20.1948 242.699 21.5274C245.264 22.3467 247.013 24.0563 247.76 26.4723C249.029 30.5789 247.308 36.5493 242.498 44.7255C241.564 46.3135 240.609 47.8191 239.716 49.1652C240.493 49.0086 241.308 48.8569 242.146 48.7202C249.504 47.5191 254.869 48.0329 258.094 50.2479C260.256 51.7327 261.477 53.9641 261.622 56.6974C261.839 60.7896 259.502 64.7878 255.043 67.9551C251.261 70.6407 246.084 72.5985 240.836 73.3293C237.734 73.761 233.464 73.9366 229.163 72.7841C228.004 72.4737 226.842 72.067 225.703 71.5435L225.701 71.5413ZM253.246 145.277L239.148 143.039C239.055 143.025 238.963 143.004 238.874 142.981C237.575 142.633 236.722 141.354 236.936 139.998C237.165 138.549 238.528 137.562 239.979 137.793L254.077 140.031C255.528 140.26 256.519 141.622 256.289 143.07C256.06 144.519 254.698 145.507 253.246 145.276L253.246 145.277ZM275.56 136.357L220.684 127.645C220.59 127.631 220.499 127.61 220.409 127.586C219.11 127.238 218.257 125.959 218.472 124.603C218.7 123.154 220.063 122.167 221.515 122.398L276.391 131.11C277.844 131.342 278.834 132.701 278.603 134.15C278.375 135.599 277.012 136.587 275.561 136.355L275.56 136.357ZM289.291 91.2946C285.531 93.8263 280.25 93.1774 273.592 89.3646C273.545 89.3371 273.497 89.3096 273.449 89.2822C273.635 89.7957 273.816 90.3189 273.992 90.8481C275.098 94.1908 275.716 97.1148 275.825 99.5378C275.99 103.145 275.043 105.815 273.015 107.476C269.881 110.044 265.213 110.182 260.242 108.85C252.839 106.867 244.76 101.619 240.062 96.2657C237.604 93.4645 236.1 90.7153 235.59 88.0968C234.947 84.7978 235.901 81.8495 238.344 79.5699C239.872 78.1446 241.844 77.4631 244.046 77.6005C248.06 77.8495 252.578 80.902 256.233 84.0608C255.812 80.3975 256.156 77.3114 257.261 74.86C258.438 72.2484 260.51 70.3678 263.254 69.4223C267.392 67.9962 273.252 68.9597 279.333 72.0681C284.843 74.8844 289.391 78.8798 291.201 82.4953C292.962 86.0117 292.248 89.3026 289.289 91.2942L289.291 91.2946Z" fill="#00D4FF"/>
<path d="M301.903 194.197L333.846 -7.55553C333.955 -8.25201 333.786 -8.96278 333.369 -9.53264C332.954 -10.102 332.329 -10.484 331.632 -10.5957L56.2531 -54.3148C54.8016 -54.5461 53.4382 -53.5569 53.2102 -52.1096L21.2681 149.643C21.1586 150.339 21.3282 151.05 21.7448 151.62C22.1047 152.114 22.6234 152.467 23.2095 152.624C23.2986 152.648 23.3891 152.667 23.4822 152.683L298.862 196.402C300.314 196.634 301.677 195.646 301.905 194.197L301.903 194.197ZM291.06 181.687C290.49 182.101 289.777 182.271 289.08 182.161L37.1799 142.169C37.0864 142.155 36.9946 142.134 36.9055 142.11C35.6066 141.762 34.7536 140.483 34.968 139.127L62.989 -37.8671C63.0985 -38.5636 63.4822 -39.1866 64.0522 -39.6002C64.6222 -40.0139 65.3345 -40.1841 66.0323 -40.0741L317.933 -0.0796707C319.385 0.151617 320.376 1.51141 320.146 2.96001L292.125 179.954C292.015 180.651 291.632 181.274 291.062 181.687L291.06 181.687Z" fill="#00D4FF"/>
<path d="M133.035 24.2652C129.708 22.518 125.581 23.7965 123.832 27.1146C122.986 28.7227 122.818 30.5636 123.357 32.2992C123.899 34.0351 125.085 35.4563 126.696 36.3041C127.153 36.544 127.626 36.7274 128.106 36.8559C131.113 37.6618 134.392 36.3171 135.899 33.4547C136.745 31.8467 136.913 30.0057 136.373 28.2702C135.832 26.5342 134.646 25.1131 133.035 24.2652V24.2652Z" fill="#00D4FF"/>
<path d="M185.207 35.0542C185.485 35.2571 185.781 35.4426 186.095 35.6074C186.571 35.8578 187.064 36.0485 187.562 36.1821C187.588 36.189 187.614 36.1959 187.64 36.2028C188.098 36.3202 188.562 36.3914 189.026 36.4149C189.947 36.4617 190.864 36.3282 191.725 36.0308C193.368 35.4631 194.808 34.2966 195.68 32.6405C197.501 29.1822 196.161 24.888 192.696 23.0688C189.231 21.2478 184.929 22.5804 183.11 26.0374C181.454 29.1806 182.412 33.0168 185.207 35.0559L185.207 35.0542Z" fill="#00D4FF"/>
<path d="M67.8289 -34.4094L63.06 -4.29377L98.0019 -29.6182L67.8289 -34.4094Z" fill="white"/>
<path d="M314.474 4.74847L284.729 0.0261364L309.774 34.4353L314.474 4.74847Z" fill="white"/>
<path d="M292.049 146.389L257.116 171.708L287.283 176.496L292.049 146.389Z" fill="white"/>
<path d="M40.637 137.34L71.2332 142.196L45.4727 106.804L40.637 137.34Z" fill="white"/>
<path d="M206.929 115.291C207.096 114.234 206.633 113.161 205.748 112.555L201.544 109.678L205.746 106.807C206.63 106.202 207.092 105.129 206.923 104.072C206.754 103.015 205.981 102.137 204.953 101.834L200.066 100.395L203.173 96.3645C203.826 95.5168 203.934 94.3543 203.446 93.4005C202.959 92.4472 201.953 91.8495 200.88 91.8773L195.787 92.0138L197.494 87.2217C197.852 86.2143 197.594 85.0746 196.837 84.3185C196.08 83.5619 194.939 83.302 193.926 83.6612L189.126 85.3627L189.266 80.2772C189.293 79.2086 188.696 78.2035 187.741 77.7167C186.785 77.2316 185.62 77.3372 184.771 77.9896L180.734 81.0886L179.292 76.2098C178.988 75.1827 178.107 74.4115 177.049 74.2433C175.99 74.0751 174.915 74.5367 174.309 75.4191L171.431 79.6133L168.552 75.4178C167.946 74.5333 166.87 74.071 165.81 74.236C164.752 74.4033 163.871 75.1736 163.569 76.1996L162.131 81.0767L158.093 77.971C157.243 77.318 156.076 77.209 155.122 77.6937C154.167 78.1784 153.569 79.1838 153.6 80.2534L153.742 85.3373L148.94 83.6289C147.93 83.2704 146.787 83.5268 146.029 84.2842C145.272 85.0417 145.016 86.1827 145.376 87.1884L147.086 91.9812L141.994 91.8377C140.922 91.8071 139.914 92.4022 139.427 93.3567C138.94 94.3112 139.049 95.4749 139.703 96.3229L142.812 100.356L137.928 101.789C136.898 102.089 136.125 102.967 135.957 104.025C135.789 105.084 136.253 106.157 137.137 106.763L141.342 109.64L137.142 112.51C136.256 113.114 135.794 114.187 135.961 115.245C136.13 116.302 136.902 117.182 137.93 117.485L142.818 118.925L139.712 122.953C139.059 123.801 138.951 124.965 139.439 125.921C139.927 126.875 140.933 127.472 142.005 127.442L147.098 127.306L145.391 132.098C145.033 133.105 145.291 134.247 146.049 135.003C146.807 135.76 147.95 136.018 148.96 135.661L153.76 133.959L153.621 139.045C153.593 140.115 154.19 141.12 155.148 141.606C156.103 142.091 157.269 141.983 158.117 141.333L162.154 138.234L163.596 143.116C163.873 144.05 164.625 144.772 165.555 145.021C165.648 145.046 165.742 145.066 165.838 145.082C166.897 145.251 167.972 144.789 168.578 143.906L171.456 139.712L174.339 143.91C174.945 144.793 176.02 145.256 177.079 145.088C178.138 144.921 179.017 144.15 179.319 143.124L180.756 138.247L184.795 141.351C185.645 142.004 186.812 142.113 187.766 141.629C188.721 141.144 189.319 140.138 189.288 139.069L189.146 133.985L193.943 135.692C194.958 136.053 196.097 135.796 196.857 135.039C197.616 134.282 197.872 133.141 197.512 132.134L195.802 127.341L200.896 127.485C201.967 127.516 202.976 126.919 203.461 125.966C203.946 125.012 203.839 123.847 203.185 122.999L200.076 118.966L204.962 117.532C205.991 117.23 206.762 116.351 206.93 115.295L206.929 115.291ZM169.67 119.773C165.622 119.13 162.859 115.334 163.499 111.293L178.16 113.622C177.52 117.662 173.721 120.416 169.672 119.773L169.67 119.773ZM167.05 98.5624C169.534 98.9567 171.23 101.286 170.837 103.765C170.445 106.244 168.113 107.935 165.629 107.54C163.145 107.146 161.449 104.817 161.842 102.337C162.234 99.8582 164.566 98.1681 167.05 98.5624ZM177.623 109.445C175.139 109.051 173.443 106.722 173.835 104.242C174.228 101.763 176.56 100.073 179.044 100.467C181.528 100.862 183.223 103.191 182.831 105.67C182.438 108.149 180.107 109.84 177.623 109.445Z" fill="#9A63FF"/>
<path d="M276.391 131.11L221.515 122.398C220.063 122.166 218.7 123.155 218.472 124.603C218.257 125.958 219.11 127.237 220.409 127.585C220.498 127.609 220.591 127.628 220.684 127.644L275.56 136.357C277.011 136.588 278.375 135.599 278.603 134.151C278.831 132.702 277.844 131.343 276.39 131.112L276.391 131.11Z" fill="black"/>
<path d="M254.076 140.03L239.978 137.792C238.527 137.561 237.164 138.548 236.935 139.997C236.721 141.353 237.574 142.632 238.873 142.98C238.962 143.004 239.054 143.023 239.147 143.039L253.245 145.277C254.696 145.508 256.059 144.52 256.288 143.071C256.518 141.623 255.525 140.261 254.075 140.032L254.076 140.03Z" fill="black"/>
<path d="M119.89 106.264L65.0138 97.5513C63.5623 97.32 62.199 98.3092 61.9709 99.7566C61.7564 101.112 62.6095 102.391 63.9084 102.739C63.9975 102.763 64.0897 102.782 64.1828 102.798L119.059 111.51C120.51 111.742 121.874 110.752 122.102 109.305C122.332 107.856 121.341 106.497 119.89 106.265L119.89 106.264Z" fill="black"/>
<path d="M97.5777 115.184L83.4802 112.947C82.0288 112.715 80.6654 113.705 80.4374 115.152C80.2229 116.508 81.0759 117.786 82.3749 118.134C82.464 118.158 82.5562 118.177 82.6493 118.193L96.7468 120.431C98.1982 120.662 99.5616 119.673 99.7896 118.226C100.02 116.777 99.0292 115.416 97.5773 115.186L97.5777 115.184Z" fill="black"/>
<path d="M165.63 107.54C168.114 107.934 170.445 106.244 170.838 103.765C171.23 101.286 169.535 98.9566 167.051 98.5623C164.567 98.1679 162.235 99.858 161.842 102.337C161.45 104.816 163.146 107.146 165.63 107.54Z" fill="black"/>
<path d="M179.046 100.466C176.562 100.072 174.23 101.762 173.838 104.241C173.445 106.72 175.141 109.05 177.625 109.444C180.109 109.838 182.441 108.148 182.833 105.669C183.225 103.19 181.53 100.86 179.046 100.466Z" fill="black"/>
<path d="M163.499 111.293C162.859 115.334 165.624 119.13 169.67 119.772C173.719 120.415 177.519 117.66 178.158 113.621L163.497 111.293L163.499 111.293Z" fill="black"/>
<path d="M256.233 84.0601C252.576 80.9009 248.06 77.8488 244.046 77.5998C241.843 77.4625 239.872 78.1439 238.344 79.5692C235.898 81.8484 234.947 84.7972 235.589 88.0962C236.1 90.7147 237.604 93.4638 240.062 96.2651C244.76 101.619 252.838 106.866 260.241 108.85C265.213 110.182 269.878 110.043 273.015 107.476C275.043 105.814 275.99 103.143 275.825 99.5372C275.715 97.1159 275.097 94.1918 273.991 90.8475C273.815 90.3183 273.634 89.795 273.449 89.2815C273.496 89.309 273.544 89.3364 273.592 89.3639C280.249 93.1768 285.53 93.8257 289.291 91.294C292.249 89.3024 292.963 86.0115 291.202 82.4951C289.39 78.8791 284.844 74.8842 279.334 72.0679C273.253 68.9595 267.394 67.996 263.255 69.4221C260.512 70.3676 258.439 72.2482 257.262 74.8598C256.157 77.3112 255.813 80.3973 256.235 84.0606L256.233 84.0601Z" fill="black"/>
<path d="M117.629 53.5285C119.395 54.4563 121.219 55.163 123.069 55.6589C134.683 58.7707 147.344 53.5781 153.164 42.5237C156.433 36.3155 157.081 29.2055 154.993 22.5038C152.904 15.8022 148.325 10.3103 142.102 7.04097C129.256 0.292246 113.315 5.22923 106.567 18.0457C99.8198 30.8622 104.782 46.7797 117.629 53.5285V53.5285ZM133.035 24.2653C134.647 25.1114 135.832 26.5342 136.374 28.2702C136.915 30.0062 136.747 31.8472 135.899 33.4548C134.392 36.3171 131.113 37.6618 128.106 36.856C127.626 36.7274 127.153 36.544 126.696 36.3041C125.084 35.458 123.899 34.0352 123.358 32.2992C122.816 30.5632 122.984 28.7222 123.832 27.1147C125.579 23.796 129.707 22.5176 133.035 24.2653V24.2653Z" fill="black"/>
<path d="M80.5287 77.7706C81.0034 77.8978 81.4886 78.0131 81.9808 78.1157C87.7349 79.3093 94.1027 78.6236 99.014 76.2793C104.669 73.579 108.171 70.2431 109.424 66.3631C110.709 62.382 109.083 59.3417 109.013 59.2129C109 59.1912 108.987 59.1695 108.974 59.1495L103.377 50.4943C102.758 49.1315 101.598 48.0656 100.184 47.5639C98.729 47.0456 97.1744 47.1515 95.8057 47.8588C91.8021 49.9276 87.5952 52.4331 86.7349 55.3422C86.4243 56.3917 86.5478 57.4183 87.1041 58.3921C87.87 59.7356 88.9308 60.5477 90.2549 60.8017C92.0698 61.1505 93.9123 60.3062 94.9855 59.6663L96.5541 62.1064C96.2677 62.4898 95.3338 63.4254 92.4476 64.8332C91.3403 65.3741 89.4833 65.7104 87.5878 65.0321C85.7491 64.3745 84.3138 62.9451 83.3195 60.7817C81.6258 57.0947 81.8173 54.2005 83.9204 51.6775C85.8339 49.3823 89.0815 47.7085 91.9455 46.2324C93.9807 45.1832 95.9048 44.1921 97.2236 43.0608C98.9068 41.6185 99.4561 40.0208 98.8596 38.3122C97.7337 35.0907 95.7495 32.9956 92.9632 32.0841C88.8711 30.7475 83.1596 32.1845 77.7 35.938C71.7386 40.0353 67.6663 45.4381 65.9265 51.561C64.3378 57.1472 64.8387 62.8589 67.3333 67.6421C69.9301 72.6195 74.5823 76.1773 80.5287 77.7706V77.7706Z" fill="black"/>
<path d="M161.267 53.6838C163.051 57.7395 165.944 60.4118 169.531 61.3728C170.136 61.5349 170.761 61.6492 171.403 61.7114C174.981 62.0633 178.365 60.1822 181.465 56.1246C183.117 53.9628 184.722 51.1305 186.258 47.6802C186.504 51.3713 187.061 54.5082 187.923 57.0396C189.052 60.3479 191.391 64.4773 196.124 65.3607C198.33 65.7721 201.788 65.2671 205.723 60.5205C209.454 56.0199 212.639 48.8176 214.24 41.2499C216.073 32.5859 215.688 24.2477 213.154 17.7711C209.688 8.91908 202.394 3.49486 192.059 2.08758C187.271 1.43518 182.712 2.17274 178.503 4.28006C174.77 6.14993 171.398 9.05345 168.484 12.9115C164.254 18.5121 161.181 25.9074 159.833 33.7337C158.521 41.3605 159.043 48.6303 161.267 53.6838ZM187.641 36.2011C187.615 36.1942 187.589 36.1873 187.564 36.1804C187.063 36.0464 186.572 35.8562 186.096 35.6057C185.782 35.4409 185.486 35.2554 185.208 35.0526C182.415 33.0139 181.457 29.1794 183.112 26.034C184.933 22.5775 189.233 21.2445 192.698 23.0654C196.162 24.8864 197.502 29.1806 195.682 32.6371C194.81 34.2915 193.37 35.458 191.726 36.0274C190.866 36.3248 189.948 36.4584 189.028 36.4115C188.564 36.388 188.1 36.3168 187.641 36.1994L187.641 36.2011Z" fill="black"/>
<path d="M225.701 71.5406C226.843 72.0646 228.003 72.4708 229.161 72.7812C233.461 73.9332 237.732 73.7581 240.834 73.3264C246.083 72.5956 251.26 70.6378 255.041 67.9522C259.501 64.7849 261.837 60.7867 261.621 56.6945C261.476 53.9595 260.256 51.7303 258.092 50.245C254.867 48.03 249.502 47.5179 242.144 48.7173C241.307 48.854 240.493 49.0044 239.714 49.1623C240.608 47.8163 241.562 46.3123 242.496 44.7226C247.306 36.5464 249.027 30.576 247.758 26.4694C247.012 24.0534 245.262 22.3438 242.697 21.5245C238.51 20.1919 233.524 21.9258 228.633 26.4145C224.492 30.2153 220.722 35.7246 218.293 41.5273C214.825 49.81 215.088 55.8465 215.918 59.4524C217.198 65.0062 220.58 69.1858 225.7 71.5384L225.701 71.5406Z" fill="black"/>
<path d="M292.124 179.954L320.145 2.96001C320.375 1.5114 319.383 0.149442 317.933 -0.0796762L66.0315 -40.0724C65.3336 -40.1824 64.6218 -40.0139 64.0513 -39.5985C63.4813 -39.1849 63.0977 -38.5619 62.9882 -37.8654L34.9672 139.129C34.7527 140.485 35.6057 141.763 36.9047 142.111C36.9938 142.135 37.086 142.154 37.1791 142.17L289.081 182.161C289.779 182.271 290.491 182.103 291.061 181.687C291.631 181.274 292.015 180.651 292.124 179.954V179.954ZM67.8292 -34.4091L98.0044 -29.6192L284.729 0.026324L314.475 4.74911L309.775 34.4377L292.052 146.391L287.285 176.498L257.119 171.709L71.2345 142.199L40.64 137.342L45.4735 106.808L63.0603 -4.29352L67.8275 -34.4096L67.8292 -34.4091Z" fill="black"/>
</g>
<defs>
<clipPath id="clip0_2_6712">
<rect width="304" height="237.5" fill="white" transform="translate(61.4697 -83) rotate(15)"/>
</clipPath>
</defs>
</svg>
