<svg width="25" height="25" viewBox="0 0 25 25" fill="none" xmlns="http://www.w3.org/2000/svg">
<g clip-path="url(#clip0_9_2177)">
<path d="M15.9016 13.5C16.6516 13.5 17.3116 13.09 17.6516 12.47L21.2316 5.98C21.6016 5.32 21.1216 4.5 20.3616 4.5H5.56156L4.62156 2.5H1.35156V4.5H3.35156L6.95156 12.09L5.60156 14.53C4.87156 15.87 5.83156 17.5 7.35156 17.5H19.3516V15.5H7.35156L8.45156 13.5H15.9016ZM6.51156 6.5H18.6616L15.9016 11.5H8.88156L6.51156 6.5ZM7.35156 18.5C6.25156 18.5 5.36156 19.4 5.36156 20.5C5.36156 21.6 6.25156 22.5 7.35156 22.5C8.45156 22.5 9.35156 21.6 9.35156 20.5C9.35156 19.4 8.45156 18.5 7.35156 18.5ZM17.3516 18.5C16.2516 18.5 15.3616 19.4 15.3616 20.5C15.3616 21.6 16.2516 22.5 17.3516 22.5C18.4516 22.5 19.3516 21.6 19.3516 20.5C19.3516 19.4 18.4516 18.5 17.3516 18.5Z" fill="#323232"/>
</g>
<defs>
<clipPath id="clip0_9_2177">
<rect width="24" height="24" fill="white" transform="translate(0.351562 0.5)"/>
</clipPath>
</defs>
</svg>
