<svg width="25" height="24" viewBox="0 0 25 24" fill="none" xmlns="http://www.w3.org/2000/svg">
<g clip-path="url(#clip0_9_2769)">
<path d="M15.8516 14H15.0616L14.7816 13.73C15.7616 12.59 16.3516 11.11 16.3516 9.5C16.3516 5.91 13.4416 3 9.85156 3C6.26156 3 3.35156 5.91 3.35156 9.5C3.35156 13.09 6.26156 16 9.85156 16C11.4616 16 12.9416 15.41 14.0816 14.43L14.3516 14.71V15.5L19.3516 20.49L20.8416 19L15.8516 14V14ZM9.85156 14C7.36156 14 5.35156 11.99 5.35156 9.5C5.35156 7.01 7.36156 5 9.85156 5C12.3416 5 14.3516 7.01 14.3516 9.5C14.3516 11.99 12.3416 14 9.85156 14Z" fill="#323232"/>
</g>
<defs>
<clipPath id="clip0_9_2769">
<rect width="24" height="24" fill="white" transform="translate(0.351562)"/>
</clipPath>
</defs>
</svg>
