<svg width="25" height="25" viewBox="0 0 25 25" fill="none" xmlns="http://www.w3.org/2000/svg">
<g clip-path="url(#clip0_9_2972)">
<path d="M17.3516 3.5C15.6116 3.5 13.9416 4.31 12.8516 5.59C11.7616 4.31 10.0916 3.5 8.35156 3.5C5.27156 3.5 2.85156 5.92 2.85156 9C2.85156 12.78 6.25156 15.86 11.4016 20.54L12.8516 21.85L14.3016 20.53C19.4516 15.86 22.8516 12.78 22.8516 9C22.8516 5.92 20.4316 3.5 17.3516 3.5ZM12.9516 19.05L12.8516 19.15L12.7516 19.05C7.99156 14.74 4.85156 11.89 4.85156 9C4.85156 7 6.35156 5.5 8.35156 5.5C9.89156 5.5 11.3916 6.49 11.9216 7.86H13.7916C14.3116 6.49 15.8116 5.5 17.3516 5.5C19.3516 5.5 20.8516 7 20.8516 9C20.8516 11.89 17.7116 14.74 12.9516 19.05Z" fill="#323232"/>
</g>
<defs>
<clipPath id="clip0_9_2972">
<rect width="24" height="24" fill="white" transform="translate(0.851562 0.5)"/>
</clipPath>
</defs>
</svg>
