<svg width="25" height="25" viewBox="0 0 25 25" fill="none" xmlns="http://www.w3.org/2000/svg">
<g clip-path="url(#clip0_9_2973)">
<path d="M16.4016 13.5C17.1516 13.5 17.8116 13.09 18.1516 12.47L21.7316 5.98C22.1016 5.32 21.6216 4.5 20.8616 4.5H6.06156L5.12156 2.5H1.85156V4.5H3.85156L7.45156 12.09L6.10156 14.53C5.37156 15.87 6.33156 17.5 7.85156 17.5H19.8516V15.5H7.85156L8.95156 13.5H16.4016ZM7.01156 6.5H19.1616L16.4016 11.5H9.38156L7.01156 6.5ZM7.85156 18.5C6.75156 18.5 5.86156 19.4 5.86156 20.5C5.86156 21.6 6.75156 22.5 7.85156 22.5C8.95156 22.5 9.85156 21.6 9.85156 20.5C9.85156 19.4 8.95156 18.5 7.85156 18.5ZM17.8516 18.5C16.7516 18.5 15.8616 19.4 15.8616 20.5C15.8616 21.6 16.7516 22.5 17.8516 22.5C18.9516 22.5 19.8516 21.6 19.8516 20.5C19.8516 19.4 18.9516 18.5 17.8516 18.5Z" fill="#323232"/>
</g>
<defs>
<clipPath id="clip0_9_2973">
<rect width="24" height="24" fill="white" transform="translate(0.851562 0.5)"/>
</clipPath>
</defs>
</svg>
