<svg width="15" height="15" viewBox="0 0 15 15" fill="none" xmlns="http://www.w3.org/2000/svg">
<g clip-path="url(#clip0_9_1443)">
<path d="M7.5 1.25C5.08125 1.25 3.125 3.20625 3.125 5.625C3.125 8.90625 7.5 13.75 7.5 13.75C7.5 13.75 11.875 8.90625 11.875 5.625C11.875 3.20625 9.91875 1.25 7.5 1.25ZM4.375 5.625C4.375 3.9 5.775 2.5 7.5 2.5C9.225 2.5 10.625 3.9 10.625 5.625C10.625 7.425 8.825 10.1187 7.5 11.8C6.2 10.1312 4.375 7.40625 4.375 5.625Z" fill="white"/>
<path d="M7.5 7.1875C8.36294 7.1875 9.0625 6.48794 9.0625 5.625C9.0625 4.76206 8.36294 4.0625 7.5 4.0625C6.63706 4.0625 5.9375 4.76206 5.9375 5.625C5.9375 6.48794 6.63706 7.1875 7.5 7.1875Z" fill="white"/>
</g>
<defs>
<clipPath id="clip0_9_1443">
<rect width="15" height="15" fill="white"/>
</clipPath>
</defs>
</svg>
