<svg width="25" height="24" viewBox="0 0 25 24" fill="none" xmlns="http://www.w3.org/2000/svg">
<g clip-path="url(#clip0_9_2970)">
<path d="M16.3516 14H15.5616L15.2816 13.73C16.2616 12.59 16.8516 11.11 16.8516 9.5C16.8516 5.91 13.9416 3 10.3516 3C6.76156 3 3.85156 5.91 3.85156 9.5C3.85156 13.09 6.76156 16 10.3516 16C11.9616 16 13.4416 15.41 14.5816 14.43L14.8516 14.71V15.5L19.8516 20.49L21.3416 19L16.3516 14V14ZM10.3516 14C7.86156 14 5.85156 11.99 5.85156 9.5C5.85156 7.01 7.86156 5 10.3516 5C12.8416 5 14.8516 7.01 14.8516 9.5C14.8516 11.99 12.8416 14 10.3516 14Z" fill="#323232"/>
</g>
<defs>
<clipPath id="clip0_9_2970">
<rect width="24" height="24" fill="white" transform="translate(0.851562)"/>
</clipPath>
</defs>
</svg>
