<svg width="25" height="25" viewBox="0 0 25 25" fill="none" xmlns="http://www.w3.org/2000/svg">
<g clip-path="url(#clip0_9_2082)">
<path d="M16.8516 3.5C15.1116 3.5 13.4416 4.31 12.3516 5.59C11.2616 4.31 9.59156 3.5 7.85156 3.5C4.77156 3.5 2.35156 5.92 2.35156 9C2.35156 12.78 5.75156 15.86 10.9016 20.54L12.3516 21.85L13.8016 20.53C18.9516 15.86 22.3516 12.78 22.3516 9C22.3516 5.92 19.9316 3.5 16.8516 3.5ZM12.4516 19.05L12.3516 19.15L12.2516 19.05C7.49156 14.74 4.35156 11.89 4.35156 9C4.35156 7 5.85156 5.5 7.85156 5.5C9.39156 5.5 10.8916 6.49 11.4216 7.86H13.2916C13.8116 6.49 15.3116 5.5 16.8516 5.5C18.8516 5.5 20.3516 7 20.3516 9C20.3516 11.89 17.2116 14.74 12.4516 19.05Z" fill="#323232"/>
</g>
<defs>
<clipPath id="clip0_9_2082">
<rect width="24" height="24" fill="white" transform="translate(0.351562 0.5)"/>
</clipPath>
</defs>
</svg>
