<svg width="23" height="22" viewBox="0 0 23 22" fill="none" xmlns="http://www.w3.org/2000/svg">
<g clip-path="url(#clip0_9_2915)">
<path fill-rule="evenodd" clip-rule="evenodd" d="M3.125 11.23C3.938 13.91 7.258 16 11.125 16C14.992 16 18.312 13.91 19.125 11.23V10.77C18.312 8.09 14.992 6 11.125 6C7.258 6 3.938 8.09 3.125 10.77V11.23ZM21.125 10.5C20.125 6.5 15.625 4 11.125 4C6.625 4 2.125 6.5 1.125 10.5V11.5C2.125 15.5 6.625 18 11.125 18C15.625 18 20.125 15.5 21.125 11.5V10.5Z" fill="#0E0E0E"/>
<path d="M14.125 11C14.125 11.394 14.0474 11.7841 13.8966 12.1481C13.7459 12.512 13.5249 12.8427 13.2463 13.1213C12.9677 13.3999 12.637 13.6209 12.2731 13.7716C11.9091 13.9224 11.519 14 11.125 14C10.731 14 10.3409 13.9224 9.97695 13.7716C9.61297 13.6209 9.28226 13.3999 9.00368 13.1213C8.7251 12.8427 8.50413 12.512 8.35336 12.1481C8.2026 11.7841 8.125 11.394 8.125 11C8.125 10.2044 8.44107 9.44129 9.00368 8.87868C9.56629 8.31607 10.3294 8 11.125 8C11.9206 8 12.6837 8.31607 13.2463 8.87868C13.8089 9.44129 14.125 10.2044 14.125 11V11Z" fill="#0E0E0E"/>
</g>
<defs>
<clipPath id="clip0_9_2915">
<rect width="22" height="22" fill="white" transform="translate(0.125)"/>
</clipPath>
</defs>
</svg>
