<svg width="19" height="19" viewBox="0 0 19 19" fill="none" xmlns="http://www.w3.org/2000/svg">
<g clip-path="url(#clip0_9_2927)">
<path fill-rule="evenodd" clip-rule="evenodd" d="M18.4319 7.86401H9.95593V11.345H14.7999C14.6997 11.8956 14.4888 12.4202 14.1802 12.887C13.8715 13.3538 13.4713 13.7532 13.0039 14.061V16.32H15.9119C17.6139 14.753 18.5959 12.445 18.5959 9.70501C18.5959 9.06601 18.5389 8.45301 18.4319 7.86401Z" fill="#4285F4"/>
<path fill-rule="evenodd" clip-rule="evenodd" d="M15.912 16.32L13.004 14.061C12.198 14.601 11.167 14.921 9.95596 14.921C7.61196 14.921 5.62796 13.337 4.91996 11.21H1.91296V13.542C2.66201 15.0329 3.8109 16.2862 5.23125 17.1617C6.6516 18.0373 8.28744 18.5006 9.95596 18.5C12.386 18.5 14.423 17.694 15.912 16.32Z" fill="#34A853"/>
<path fill-rule="evenodd" clip-rule="evenodd" d="M4.63793 9.50001C4.63793 8.90701 4.73993 8.33001 4.91993 7.79001V5.45801H1.91293C1.28299 6.71224 0.955253 8.09647 0.955934 9.50001C0.955934 10.952 1.30393 12.327 1.91293 13.542L4.91993 11.21C4.73465 10.6589 4.63943 10.0815 4.63793 9.50001V9.50001Z" fill="#FBBC05"/>
<path fill-rule="evenodd" clip-rule="evenodd" d="M13.396 5.425L15.978 2.845C14.419 1.391 12.382 0.500001 9.95596 0.500001C8.28744 0.499339 6.6516 0.962675 5.23125 1.83823C3.8109 2.71378 2.66201 3.96706 1.91296 5.458L4.91996 7.79C5.62796 5.663 7.61196 4.08 9.95596 4.08C11.277 4.08 12.464 4.534 13.396 5.425Z" fill="#EA4335"/>
</g>
<defs>
<clipPath id="clip0_9_2927">
<rect width="17.9656" height="18" fill="white" transform="translate(0.955933 0.5)"/>
</clipPath>
</defs>
</svg>
