<svg width="28" height="28" viewBox="0 0 28 28" fill="none" xmlns="http://www.w3.org/2000/svg">
<g clip-path="url(#clip0_9_2032)">
<path d="M4.55016 13.9998C4.55016 12.0048 6.17183 10.3832 8.16683 10.3832H12.8335V8.1665H8.16683C4.94683 8.1665 2.3335 10.7798 2.3335 13.9998C2.3335 17.2198 4.94683 19.8332 8.16683 19.8332H12.8335V17.6165H8.16683C6.17183 17.6165 4.55016 15.9948 4.55016 13.9998ZM9.3335 15.1665H18.6668V12.8332H9.3335V15.1665ZM19.8335 8.1665H15.1668V10.3832H19.8335C21.8285 10.3832 23.4502 12.0048 23.4502 13.9998C23.4502 15.9948 21.8285 17.6165 19.8335 17.6165H15.1668V19.8332H19.8335C23.0535 19.8332 25.6668 17.2198 25.6668 13.9998C25.6668 10.7798 23.0535 8.1665 19.8335 8.1665Z" fill="#5F6368"/>
</g>
<defs>
<clipPath id="clip0_9_2032">
<rect width="28" height="28" fill="white"/>
</clipPath>
</defs>
</svg>
