<svg width="17" height="21" viewBox="0 0 17 21" fill="none" xmlns="http://www.w3.org/2000/svg">
<g clip-path="url(#clip0_9_2935)">
<path d="M16.6209 16.086C16.3451 16.7629 16.0027 17.4107 15.5989 18.02C15.0619 18.826 14.6229 19.384 14.2839 19.694C13.7589 20.203 13.1959 20.463 12.5939 20.478C12.1599 20.478 11.6389 20.348 11.0309 20.085C10.4219 19.823 9.86193 19.694 9.34993 19.694C8.81293 19.694 8.23693 19.824 7.62093 20.085C7.00393 20.348 6.50693 20.485 6.12693 20.499C5.54893 20.525 4.97293 20.257 4.39793 19.694C4.03093 19.357 3.57193 18.779 3.02193 17.961C2.43193 17.087 1.94693 16.073 1.56693 14.917C1.15993 13.67 0.955933 12.461 0.955933 11.291C0.955933 9.951 1.23093 8.794 1.78193 7.826C2.19072 7.07326 2.78653 6.43853 3.51193 5.983C4.21228 5.53938 5.02198 5.29879 5.85093 5.288C6.30993 5.288 6.91193 5.438 7.65993 5.731C8.40593 6.026 8.88493 6.176 9.09493 6.176C9.25193 6.176 9.78393 6.001 10.6859 5.652C11.5389 5.329 12.2589 5.195 12.8489 5.248C14.4469 5.384 15.6469 6.048 16.4459 7.242C15.0159 8.154 14.3099 9.432 14.3239 11.069C14.3369 12.346 14.7759 13.408 15.6399 14.251C16.0319 14.642 16.4699 14.945 16.9559 15.159C16.8509 15.482 16.7389 15.79 16.6209 16.086V16.086ZM12.9549 0.901C12.9549 1.901 12.6079 2.835 11.9169 3.699C11.0819 4.727 10.0719 5.321 8.97693 5.227C8.96224 5.10087 8.95489 4.97399 8.95493 4.847C8.95493 3.887 9.35193 2.86 10.0569 2.02C10.4089 1.594 10.8569 1.24 11.3989 0.959C11.9419 0.68 12.4539 0.527 12.9359 0.5C12.9489 0.634 12.9559 0.768 12.9559 0.9L12.9549 0.901Z" fill="black"/>
</g>
<defs>
<clipPath id="clip0_9_2935">
<rect width="15.9694" height="20" fill="white" transform="translate(0.955933 0.5)"/>
</clipPath>
</defs>
</svg>
