<svg width="18" height="19" viewBox="0 0 18 19" fill="none" xmlns="http://www.w3.org/2000/svg">
<g clip-path="url(#clip0_9_1920)">
<path d="M11.25 9.01562V4.51562L9 2.26562L6.75 4.51562V6.01562H2.25V16.5156H15.75V9.01562H11.25ZM5.25 15.0156H3.75V13.5156H5.25V15.0156ZM5.25 12.0156H3.75V10.5156H5.25V12.0156ZM5.25 9.01562H3.75V7.51562H5.25V9.01562ZM9.75 15.0156H8.25V13.5156H9.75V15.0156ZM9.75 12.0156H8.25V10.5156H9.75V12.0156ZM9.75 9.01562H8.25V7.51562H9.75V9.01562ZM9.75 6.01562H8.25V4.51562H9.75V6.01562ZM14.25 15.0156H12.75V13.5156H14.25V15.0156ZM14.25 12.0156H12.75V10.5156H14.25V12.0156Z" fill="#BDC1C6"/>
</g>
<defs>
<clipPath id="clip0_9_1920">
<rect width="18" height="18" fill="white" transform="translate(0 0.765625)"/>
</clipPath>
</defs>
</svg>
