<svg width="19" height="19" viewBox="0 0 19 19" fill="none" xmlns="http://www.w3.org/2000/svg">
<g clip-path="url(#clip0_9_1935)">
<path d="M6.79688 12.0156H8.29688V7.51562H6.79688V12.0156ZM7.54688 0.765625C3.40688 0.765625 0.046875 4.12563 0.046875 8.26562C0.046875 12.4056 3.40688 15.7656 7.54688 15.7656C11.6869 15.7656 15.0469 12.4056 15.0469 8.26562C15.0469 4.12563 11.6869 0.765625 7.54688 0.765625ZM7.54688 14.2656C4.23938 14.2656 1.54688 11.5731 1.54688 8.26562C1.54688 4.95813 4.23938 2.26562 7.54688 2.26562C10.8544 2.26562 13.5469 4.95813 13.5469 8.26562C13.5469 11.5731 10.8544 14.2656 7.54688 14.2656ZM6.79688 6.01562H8.29688V4.51562H6.79688V6.01562Z" fill="#BDC1C6"/>
</g>
<defs>
<clipPath id="clip0_9_1935">
<rect width="18" height="18" fill="white" transform="translate(0.046875 0.765625)"/>
</clipPath>
</defs>
</svg>
