<svg width="21" height="22" viewBox="0 0 21 22" fill="none" xmlns="http://www.w3.org/2000/svg">
<path d="M19.7589 18.712L13.797 12.7501C14.7221 11.554 15.2226 10.0917 15.2226 8.55356C15.2226 6.71242 14.504 4.98606 13.2047 3.68441C11.9053 2.38276 10.1744 1.6665 8.33554 1.6665C6.4967 1.6665 4.76575 2.38505 3.46639 3.68441C2.16474 4.98377 1.44849 6.71242 1.44849 8.55356C1.44849 10.3924 2.16704 12.1233 3.46639 13.4227C4.76575 14.7244 6.4944 15.4406 8.33554 15.4406C9.87365 15.4406 11.3337 14.9402 12.5298 14.0173L18.4917 19.9769C18.5091 19.9944 18.5299 20.0083 18.5527 20.0177C18.5756 20.0272 18.6001 20.0321 18.6248 20.0321C18.6495 20.0321 18.674 20.0272 18.6969 20.0177C18.7197 20.0083 18.7405 19.9944 18.758 19.9769L19.7589 18.9783C19.7764 18.9608 19.7902 18.94 19.7997 18.9172C19.8092 18.8943 19.814 18.8698 19.814 18.8451C19.814 18.8204 19.8092 18.7959 19.7997 18.7731C19.7902 18.7502 19.7764 18.7294 19.7589 18.712V18.712ZM11.9719 12.1899C10.9985 13.161 9.70836 13.6959 8.33554 13.6959C6.96272 13.6959 5.67255 13.161 4.69918 12.1899C3.7281 11.2166 3.19321 9.92638 3.19321 8.55356C3.19321 7.18074 3.7281 5.88827 4.69918 4.91719C5.67255 3.94612 6.96272 3.41122 8.33554 3.41122C9.70836 3.41122 11.0008 3.94382 11.9719 4.91719C12.943 5.89056 13.4779 7.18074 13.4779 8.55356C13.4779 9.92638 12.943 11.2188 11.9719 12.1899Z" fill="white"/>
</svg>
