<svg width="15" height="14" viewBox="0 0 15 14" fill="none" xmlns="http://www.w3.org/2000/svg">
<path d="M13.7127 12.3536L9.65493 8.29583C10.2846 7.48176 10.6252 6.48645 10.6252 5.43958C10.6252 4.18645 10.1362 3.01145 9.25181 2.12551C8.36743 1.23958 7.18931 0.752075 5.93774 0.752075C4.68618 0.752075 3.50806 1.24114 2.62368 2.12551C1.73774 3.00989 1.25024 4.18645 1.25024 5.43958C1.25024 6.69114 1.73931 7.86926 2.62368 8.75364C3.50806 9.63957 4.68462 10.1271 5.93774 10.1271C6.98462 10.1271 7.97837 9.78645 8.79243 9.15833L12.8502 13.2146C12.8621 13.2265 12.8763 13.2359 12.8918 13.2424C12.9074 13.2488 12.924 13.2521 12.9409 13.2521C12.9577 13.2521 12.9744 13.2488 12.9899 13.2424C13.0055 13.2359 13.0196 13.2265 13.0315 13.2146L13.7127 12.5349C13.7246 12.523 13.7341 12.5089 13.7405 12.4933C13.747 12.4778 13.7503 12.4611 13.7503 12.4443C13.7503 12.4274 13.747 12.4108 13.7405 12.3952C13.7341 12.3797 13.7246 12.3655 13.7127 12.3536V12.3536ZM8.41274 7.91458C7.75024 8.57551 6.87212 8.93958 5.93774 8.93958C5.00337 8.93958 4.12524 8.57551 3.46274 7.91458C2.80181 7.25208 2.43774 6.37395 2.43774 5.43958C2.43774 4.5052 2.80181 3.62551 3.46274 2.96458C4.12524 2.30364 5.00337 1.93958 5.93774 1.93958C6.87212 1.93958 7.75181 2.30208 8.41274 2.96458C9.07368 3.62708 9.43774 4.5052 9.43774 5.43958C9.43774 6.37395 9.07368 7.25364 8.41274 7.91458Z" fill="white"/>
</svg>
