<svg width="15" height="14" viewBox="0 0 15 14" fill="none" xmlns="http://www.w3.org/2000/svg">
<path d="M13.7125 12.3536L9.65469 8.29576C10.2844 7.4817 10.625 6.48639 10.625 5.43951C10.625 4.18639 10.1359 3.01139 9.25156 2.12545C8.36719 1.23951 7.18906 0.752014 5.9375 0.752014C4.68594 0.752014 3.50781 1.24108 2.62344 2.12545C1.7375 3.00983 1.25 4.18639 1.25 5.43951C1.25 6.69108 1.73906 7.8692 2.62344 8.75358C3.50781 9.63951 4.68438 10.127 5.9375 10.127C6.98438 10.127 7.97813 9.78639 8.79219 9.15826L12.85 13.2145C12.8619 13.2264 12.876 13.2359 12.8916 13.2423C12.9071 13.2488 12.9238 13.2521 12.9406 13.2521C12.9575 13.2521 12.9741 13.2488 12.9897 13.2423C13.0052 13.2359 13.0194 13.2264 13.0312 13.2145L13.7125 12.5348C13.7244 12.5229 13.7338 12.5088 13.7403 12.4933C13.7467 12.4777 13.7501 12.461 13.7501 12.4442C13.7501 12.4274 13.7467 12.4107 13.7403 12.3952C13.7338 12.3796 13.7244 12.3655 13.7125 12.3536V12.3536ZM8.4125 7.91451C7.75 8.57545 6.87187 8.93951 5.9375 8.93951C5.00313 8.93951 4.125 8.57545 3.4625 7.91451C2.80156 7.25201 2.4375 6.37389 2.4375 5.43951C2.4375 4.50514 2.80156 3.62545 3.4625 2.96451C4.125 2.30358 5.00313 1.93951 5.9375 1.93951C6.87187 1.93951 7.75156 2.30201 8.4125 2.96451C9.07344 3.62701 9.4375 4.50514 9.4375 5.43951C9.4375 6.37389 9.07344 7.25358 8.4125 7.91451Z" fill="white"/>
</svg>
